<svg xmlns="http://www.w3.org/2000/svg" viewBox="0 0 87.94 99.37"><defs><style>.cls-1{fill:#0071b5;}.cls-2{fill:#ef5451;}.cls-3{fill:#feed57;}</style></defs><title>Asset 6</title><g id="Layer_2" data-name="Layer 2"><g id="OBJECTS"><path class="cls-1" d="M30.5,99.37H87.71C82.8,82.7,71.79,59.56,47.21,45.18c0,0,4,5.09,4.25,13.79.17,6.92-2.09,16.13-10.76,26.86C36.53,91,33.19,95.49,30.5,99.37Z"/><path class="cls-2" d="M14.94,84.31c-1.7-5.45-.89-11.35.55-16.26a49.56,49.56,0,0,1,4.73-10.89c.31,10.86,10.25,10,13.65,23.12A12.83,12.83,0,0,1,34.21,82C35.61,93.69,18.64,96.16,14.94,84.31Z"/><path class="cls-3" d="M19.6,53.75l-3.11,4.8S6.15,60.31,1.87,61.81c-1.12.4-1.82.77-1.82,1.09,0,0-1.25-11,9.15-16.45,0,0,.29.37.81.94C11.62,49.14,15.38,52.81,19.6,53.75Z"/><path class="cls-2" d="M86.14,37.84c-2.43-2.49-6.67-2-8.62-8.27a5.23,5.23,0,0,1-.19-.81c-1.53-8.65,17.48-11.08,7.84-14.09-9.93-3.1-21.31,12-23.17,4.14S71.52,2.26,66.76.19,54.14,13.63,50.83,15.71,43.8.19,40.9.19s2.07,13-4.35,16.14-8.48-11.39-12-7.87-1.24,13.45-6.73,11.38-7.55,2.48-7.55,2.48a15,15,0,0,0-2.57,9,25.67,25.67,0,0,0,.49,4.42,22.74,22.74,0,0,0,3,8.79c0,.08.09.17.13.25h0a17.83,17.83,0,0,0,11,7.89c0,5.74,4.66,11,4.66,11,9.77,9,9.46,18,9.46,18C48,73.64,49.55,58,44.42,49.12s-21-9.28-21-9.28a44.12,44.12,0,0,1,10.92-1.42,38.64,38.64,0,0,1,8.61.95h0a37.73,37.73,0,0,1,10.44,4.06h0a45.2,45.2,0,0,1,8.41,6.25c9.4,8.85,25.74,3.66,26.1-5C88.06,41,87.32,39,86.14,37.84Z"/></g></g></svg>