<svg xmlns="http://www.w3.org/2000/svg" viewBox="0 0 500 500"><defs><style>.cls-1{fill:#fff;}.cls-2{fill:#0071b5;}.cls-3{fill:#ffd54f;}.cls-4{fill:#ef5451;}.cls-5{font-size:20px;fill:#424242;font-family:BebasNeue, BebasNeue;}.cls-6{letter-spacing:-0.04em;}.cls-7{letter-spacing:0em;}.cls-8{letter-spacing:-0.04em;}.cls-9{fill:#feed57;}</style></defs><title>logoMain</title><g id="BACKGROUND"><rect class="cls-1" width="500" height="500"/></g><g id="OBJECTS"><path class="cls-2" d="M258.91,252.52s19,0,19,23.27c0,0-14.72-19.94-31.34-9.5-5.34,3.35-7.24,7.39-7.37,11.33-.29,8.07,6.91,15.74,7.35,16.2-1.1-.27-39.43-10.49-42.72-47-1.88-21,6.89-30.37,13.22-38.72v0c4.86-6.38,8.26-12.15,4.35-22,0,0,14.72,3.8,12.35,22.32s.95,28.55,7.59,29.23c0,0,21.37-43.38,55.09-7.77,0,0-29.77-7.44-37.52,7.77,0,0,23.73-6.44,30.38,13C288.34,250.28,264,241.81,258.91,252.52Z"/><path class="cls-3" d="M221.15,197a13.91,13.91,0,0,1-.79,2.81c-2.06-4.62-10.79-9.49-10.79-9.49a8.23,8.23,0,0,1,1.78-1.6c3.5-2.43,8.49-2.63,8.49-2.63A19.13,19.13,0,0,1,221.15,197Z"/><path class="cls-4" d="M219.74,200.79s-5.22,9.26-8.68,11.22a2.72,2.72,0,0,1-1,.34c-2.94.3-3.75-11,5.34-11.84A14.47,14.47,0,0,1,219.74,200.79Z"/><path class="cls-4" d="M222.48,184.71s8.65,2.91,11.81,11.89c0,0,6.59,2.91,7.36,0s-2.14-5.63-4.88-5.3c0,0,5.48-1.46,5-4s-6.72-3.94-10.14-1.89c0,0,2.57-2,1.71-3.59S225.74,179.83,222.48,184.71Z"/><text class="cls-5" transform="translate(185.88 312.64)">CHICKEN <tspan class="cls-6" x="79.1" y="0">L</tspan><tspan class="cls-7" x="87.76" y="0">OGO</tspan></text><text class="cls-5" transform="translate(191.87 161.62)">CHICKEn <tspan class="cls-8" x="77.04" y="0">L</tspan><tspan x="85.7" y="0">OGO</tspan></text><path class="cls-2" d="M231.16,138h57.21c-4.91-16.67-15.92-39.8-40.5-54.19,0,0,4,5.1,4.24,13.79.18,6.92-2.08,16.13-10.75,26.86C237.19,129.62,233.85,134.12,231.16,138Z"/><path class="cls-4" d="M215.6,123c-1.71-5.46-.9-11.36.55-16.26a49.23,49.23,0,0,1,4.72-10.9c.32,10.86,10.26,10,13.66,23.12a13.36,13.36,0,0,1,.33,1.75C236.27,132.33,219.3,134.79,215.6,123Z"/><path class="cls-9" d="M220.25,92.38l-3.1,4.8s-10.34,1.76-14.62,3.26c-1.12.4-1.83.77-1.83,1.09,0,0-1.24-11,9.16-16.44,0,0,.29.36.8.93C212.27,87.77,216,91.44,220.25,92.38Z"/><path class="cls-4" d="M286.8,76.47c-2.43-2.48-6.67-2-8.62-8.27a6.37,6.37,0,0,1-.2-.81c-1.52-8.65,17.49-11.08,7.85-14.09-9.93-3.1-21.31,12-23.17,4.14s9.51-16.55,4.76-18.62-12.63,13.45-15.93,15.52-7-15.52-9.93-15.52,2.06,13-4.35,16.14-8.48-11.38-12-7.86S224,60.55,218.49,58.47,210.94,61,210.94,61a14.86,14.86,0,0,0-2.57,9,24.72,24.72,0,0,0,.49,4.42,22.58,22.58,0,0,0,3,8.79c0,.09.09.17.13.25h0a17.84,17.84,0,0,0,11,7.9c0,5.74,4.65,11,4.65,11,9.78,9,9.47,18,9.47,18,11.48-8.07,13-23.74,7.91-32.58s-21-9.29-21-9.29A44.06,44.06,0,0,1,235,77.06a38.73,38.73,0,0,1,8.62.94h0a37.56,37.56,0,0,1,10.44,4.07h0a44.87,44.87,0,0,1,8.41,6.25c9.41,8.85,25.75,3.66,26.1-5C288.72,79.58,288,77.68,286.8,76.47Z"/><text class="cls-5" transform="translate(185.88 457.98)">CHICKEN <tspan class="cls-6" x="79.1" y="0">L</tspan><tspan class="cls-7" x="87.76" y="0">OGO</tspan></text><path class="cls-4" d="M267.68,340.11s3.77-2.3,5.59.5-1.24,9.66-9.28,9.13c0,0-4.77-1.66-17.52-1.57,0,0-2.5-5.68.8-8.95,0,0,2.69-2.08,4.45-.8,0,0,1.67-4.61,5.92-4.48s2.56,3.24,2.56,3.24a5.5,5.5,0,0,1,5-1.18C268,336.88,267.68,340.11,267.68,340.11Z"/><path class="cls-2" d="M253,412.24a39.81,39.81,0,0,0-6.67-61.56,39.8,39.8,0,1,1-17.69,73.09A39.58,39.58,0,0,0,253,412.24Z"/><path class="cls-2" d="M235.34,406.91A39.61,39.61,0,0,0,258,399.8a38.22,38.22,0,0,1-30.82,21.57l-1.8.18A39.8,39.8,0,0,1,210,397.79,39.6,39.6,0,0,0,235.34,406.91Z"/><path class="cls-2" d="M234.61,391.2a39.67,39.67,0,0,0,23.19,5.28,38.21,38.21,0,0,1-37.48,3.13l-1.65-.76a39.84,39.84,0,0,1-1.38-28.3A39.62,39.62,0,0,0,234.61,391.2Z"/><path class="cls-9" d="M244.57,350.93s-8.67-.35-13.48,5.34c0,0,16.07,2.41,27,12.9C258,369.17,255.94,362.2,244.57,350.93Z"/><path class="cls-4" d="M258,371.83s5.32,15.68-2.66,17.58S252,377.7,258,371.83Z"/><text class="cls-5" transform="translate(340.68 161.62)">CHICKEN <tspan class="cls-6" x="79.1" y="0">L</tspan><tspan class="cls-7" x="87.76" y="0">OGO</tspan></text><path class="cls-4" d="M378.17,112.71c-.72-4.63-3.44-8.67-6.28-11.76a40.38,40.38,0,0,0-7.4-6.3c3.69,8.1-3.93,11-1.69,21.92a11.13,11.13,0,0,0,.38,1.41C366.36,127.05,379.72,122.74,378.17,112.71Z"/><path class="cls-2" d="M379.86,117.3c-2.88,6.7-5.67,14.47-7.78,20.73h65.19c-3.84-39.16-43.18-60.47-43.18-60.47a44.08,44.08,0,0,0-6.73-2.84c-17.35-5.66-25,5.78-25,5.78l2.21,10.69S385,105.45,379.86,117.3Z"/><path class="cls-4" d="M402.57,57.28s7-5.16,11.06,0S412.89,76.45,397,76.82c0,0-16.22-14.75-34.65,0,0,0-5.9-10.69,0-17.7,0,0,4.91-4.54,8.6-2.33,0,0,2.46-9.34,10.81-9.83s5.58,5.9,5.58,5.9,4-4.42,9.66-3.2S402.57,57.28,402.57,57.28Z"/><path class="cls-9" d="M362.39,91.36l-10.54,3.51a12.16,12.16,0,0,1,.48-1.74c2.07-5.8,8.13-11,8.13-11l.66,3.14Z"/><text class="cls-5" transform="translate(340.68 312.64)">CHICKEN <tspan class="cls-8" x="79.1" y="0">L</tspan><tspan class="cls-7" x="87.76" y="0">OGO</tspan></text><path class="cls-4" d="M400,217.61a8,8,0,0,0-3.28-15.51,8,8,0,0,0-12.62-8.38,8,8,0,0,0-15.57,2.78v10.91A41.24,41.24,0,0,1,397,218.79Z"/><path class="cls-9" d="M366.39,209.57s-14.21,2.32-14.35,11.64c0,0,7.75-1.43,9.76,2.73s4.59,4.55,4.59,4.55Z"/><path class="cls-4" d="M364.27,244.9a3,3,0,0,1-.16.31,6.16,6.16,0,0,1-4.9,3.55c-8.46.73-2.29-19.8,7.18-18.51C366.39,230.25,367.06,239.47,364.27,244.9Z"/><path class="cls-2" d="M364.1,244.9h.17a3,3,0,0,1-.16.31C364.1,245.11,364.1,245,364.1,244.9Z"/><path class="cls-2" d="M407.59,244.9a39.22,39.22,0,0,0-39-35.34v42.62a39.12,39.12,0,0,0,11.92,28.17,38.22,38.22,0,0,0,4.76,3.93,39,39,0,0,0,22.53,7.12c.46,0,.93,0,1.39,0l1.42,0a46.5,46.5,0,0,0,46.5-46.5Z"/><text class="cls-5" transform="translate(340.68 457.98)">CHICKEN <tspan class="cls-8" x="79.1" y="0">L</tspan><tspan class="cls-7" x="87.76" y="0">OGO</tspan></text><path class="cls-2" d="M392,345s20.62,6.48,17.38,42.39,13.9,50,13.9,50S359.34,424.2,392,345Z"/><path class="cls-4" d="M385.92,339.93s4.34-8.69,11.29-7.65c0,0-2.43,1.65-2.43,3.78a28.79,28.79,0,0,1,12.16-1c6.95.87,9.73-2.08,9.73-2.08S414.76,354.7,385.92,339.93Z"/><path class="cls-9" d="M390.73,344.5s-13.56-5.56-20.74,2.32c0,0,7.76,3.94,7.88,7.18s2.58,8.16,5.57,9.48C383.44,363.48,387.86,349.71,390.73,344.5Z"/><path class="cls-2" d="M411.69,380.18s-3,38,13.21,54.67C424.9,434.85,437.12,406.43,411.69,380.18Z"/><path class="cls-2" d="M380.36,380.18s-8.05,40.54,32.26,56.06C412.62,436.24,362.69,442.27,380.36,380.18Z"/><path class="cls-4" d="M382.71,364.77s-11.56,4.41-9.48,13.32S382.13,375.89,382.71,364.77Z"/><path class="cls-2" d="M417.72,382.73s19.46,16.91,11.58,49.57C429.3,432.3,450.39,399.07,417.72,382.73Z"/><path class="cls-4" d="M117.38,89.24a55.18,55.18,0,0,0-5.27-4.84A81.15,81.15,0,0,0,75.59,67.1S71.28,20,89.77,46.61c0,0,8-4.86,16.45-5.48,4.16-.31,8.42.43,11.85,3.31,10.33,8.7-5.45,14.69-5.45,14.69S143.34,72.61,117.38,89.24Z"/><path class="cls-4" d="M62.77,120.05a9.1,9.1,0,0,1-1.71-8.3,11.43,11.43,0,0,1,3.35-5.09,50.82,50.82,0,0,0,11.67-16.1A41.08,41.08,0,0,1,80.87,105C82.63,121.61,67,125.82,62.77,120.05Z"/><path class="cls-9" d="M83.35,72.91c-.13.32-.27.68-.45,1.06a26.34,26.34,0,0,1-7.31,9.84,94.16,94.16,0,0,0-12.28-15c-2.72-2.69-4.55-4.14-4.55-4.14a102.6,102.6,0,0,1,19,6C79.1,71.16,81,71.9,83.35,72.91Z"/><path class="cls-2" d="M87.06,122.54c-.07.54-.15,1.08-.22,1.62s-.18,1.25-.28,1.88c-.65,4.27-1.51,8.31-2.44,12h48.29c-1.52-33.62-24.65-52.16-40.93-61.11h0c-1.82-1-3.53-1.87-5.13-2.63l0,0a31.55,31.55,0,0,1-9,12.28C83.08,96.17,87.79,108.48,87.06,122.54Z"/><text class="cls-5" transform="translate(39.47 161.62)">CHICKEN <tspan class="cls-6" x="79.1" y="0">L</tspan><tspan class="cls-7" x="87.76" y="0">OGO</tspan></text><text class="cls-5" transform="translate(39.47 457.98)">CHICKEN <tspan class="cls-6" x="79.1" y="0">L</tspan><tspan class="cls-7" x="87.76" y="0">OGO</tspan></text><path class="cls-4" d="M67.62,342.89s3.9-7.81,10.14-6.87c0,0-2.18,1.48-2.18,3.39a26,26,0,0,1,10.93-.89c6.24.78,8.74-1.88,8.74-1.88S93.53,356.16,67.62,342.89Z"/><path class="cls-2" d="M153.15,383.14s-43.5-36.54-71.68,0c0,0-15.24,22.74,5.08,53.76,0,0,9.1-38.24,66.6-31.29,0,0-18.19-20.05-48.14-6,0,0,11.23-14.85,48.14-6.56,0,0-27.82-18.35-50.82-6.9C102.33,386.14,115.17,371.11,153.15,383.14Z"/><path class="cls-2" d="M67.3,346s7.22,8.32,1.87,40.53,13.37,50.4,13.37,50.4-27-47.06,9.36-66.19C91.9,370.71,88.16,351.05,67.3,346Z"/><path class="cls-9" d="M64.78,346.15S58.43,344.4,54,347.37c0,0,11.87,6,14.74,11.67A44.89,44.89,0,0,0,64.78,346.15Z"/><path class="cls-4" d="M68.77,361.94s2.07,18.36-5.13,18.36S61.35,365.42,68.77,361.94Z"/><text class="cls-5" transform="translate(39.47 312.64)">CHICKEN <tspan class="cls-6" x="79.1" y="0">L</tspan><tspan class="cls-7" x="87.76" y="0">OGO</tspan></text><path class="cls-4" d="M85.14,213.27A29.47,29.47,0,0,0,82.63,211a38.85,38.85,0,0,0-17.4-8.24S63.18,180.27,72,193a20.32,20.32,0,0,1,7.84-2.61,7.59,7.59,0,0,1,5.64,1.58c4.92,4.14-2.59,7-2.59,7S97.5,205.35,85.14,213.27Z"/><path class="cls-3" d="M60.61,206.38l-3,18L42.91,211.45S48.86,205,60.61,206.38Z"/><path class="cls-4" d="M56.57,227.76s-17.23,9.47-6.83,22.67S55.32,232.18,56.57,227.76Z"/><path class="cls-2" d="M124.83,208.13c-24.38,3-20.69,35.47-20.69,35.47l-14-5.91c-4.43-34.36-26-31.24-26-31.24-20.87,90.1,29.64,78.14,51.27,69.43,7.91-2.13,8.92,4.41,9,7.31l0,1.32c11.82-11.09,8.68-34.63,8.68-34.63,9.61,8.13,1.85,25.86,1.85,25.86,29.55-14.4,14.41-41,14.41-41,13.67,7.76,7,31.78,7,31.78C178.77,225.87,149.22,205.18,124.83,208.13Z"/></g><g id="DESIGNED_BY_FREEPIK" data-name="DESIGNED BY FREEPIK"><g id="_2" data-name="2"><path class="cls-2" d="M175.68,486.65v-.17a4.4,4.4,0,0,1-.68.64,2.48,2.48,0,0,1-.74.38,2.63,2.63,0,0,1-.86.13,2.46,2.46,0,0,1-1.15-.26,2.63,2.63,0,0,1-.92-.75,3.41,3.41,0,0,1-.58-1.14,5,5,0,0,1-.2-1.43,3.68,3.68,0,0,1,.79-2.52,2.61,2.61,0,0,1,2.08-.91,2.8,2.8,0,0,1,1.26.26,3.37,3.37,0,0,1,1,.79v-2.56a1.29,1.29,0,0,1,.21-.8.75.75,0,0,1,.61-.27.73.73,0,0,1,.6.25,1.13,1.13,0,0,1,.22.74v7.62a1.07,1.07,0,0,1-.23.74.78.78,0,0,1-.59.24.76.76,0,0,1-.59-.25A1.08,1.08,0,0,1,175.68,486.65Zm-3.4-2.54a3,3,0,0,0,.22,1.19,1.76,1.76,0,0,0,.6.75,1.45,1.45,0,0,0,.83.25,1.52,1.52,0,0,0,.83-.24,1.64,1.64,0,0,0,.6-.73,3.27,3.27,0,0,0,0-2.41,1.79,1.79,0,0,0-.61-.76,1.46,1.46,0,0,0-.83-.26,1.41,1.41,0,0,0-.85.27,1.71,1.71,0,0,0-.58.77A3.05,3.05,0,0,0,172.28,484.11Z"/><path class="cls-2" d="M183.3,484.55h-3.38a2.4,2.4,0,0,0,.24,1,1.62,1.62,0,0,0,.61.68,1.67,1.67,0,0,0,.85.23,2.54,2.54,0,0,0,.57-.07,2,2,0,0,0,.49-.23l.45-.33c.13-.12.31-.28.52-.49a.7.7,0,0,1,.81,0,.51.51,0,0,1,.17.41,1.2,1.2,0,0,1-.19.55,2.5,2.5,0,0,1-.55.6,3.12,3.12,0,0,1-.93.47,3.89,3.89,0,0,1-1.29.19,3.43,3.43,0,0,1-2.59-.95,3.5,3.5,0,0,1-.92-2.57,4.32,4.32,0,0,1,.22-1.42,3.36,3.36,0,0,1,.67-1.13,2.93,2.93,0,0,1,1.08-.72,3.93,3.93,0,0,1,1.41-.24,3.4,3.4,0,0,1,1.74.42,2.89,2.89,0,0,1,1.45,2.49.86.86,0,0,1-.38.84A2.28,2.28,0,0,1,183.3,484.55Zm-3.38-1h3.14a2.16,2.16,0,0,0-.48-1.32,1.41,1.41,0,0,0-1.09-.44,1.39,1.39,0,0,0-1.06.44A2.22,2.22,0,0,0,179.92,483.56Z"/><path class="cls-2" d="M191.18,485.37a2.15,2.15,0,0,1-.35,1.23,2.1,2.1,0,0,1-1,.77,4.5,4.5,0,0,1-1.65.26,4,4,0,0,1-1.6-.28,2.37,2.37,0,0,1-1-.71,1.46,1.46,0,0,1-.32-.86.67.67,0,0,1,.21-.49.69.69,0,0,1,.51-.2.56.56,0,0,1,.41.13,1.29,1.29,0,0,1,.28.38,1.65,1.65,0,0,0,1.65.91,1.4,1.4,0,0,0,.85-.23.65.65,0,0,0,.33-.53.71.71,0,0,0-.34-.66,4.36,4.36,0,0,0-1.14-.4,8.84,8.84,0,0,1-1.45-.47,2.41,2.41,0,0,1-.9-.64,1.47,1.47,0,0,1-.33-1,1.72,1.72,0,0,1,.31-1,2.19,2.19,0,0,1,.91-.74,3.59,3.59,0,0,1,1.46-.27,4.52,4.52,0,0,1,1.21.14,2.91,2.91,0,0,1,.89.37,1.8,1.8,0,0,1,.54.52,1,1,0,0,1,.19.56.64.64,0,0,1-.2.48.76.76,0,0,1-.56.19.73.73,0,0,1-.46-.15,3.2,3.2,0,0,1-.42-.45,1.65,1.65,0,0,0-.47-.41,1.43,1.43,0,0,0-.72-.15,1.46,1.46,0,0,0-.78.2.59.59,0,0,0-.31.5.53.53,0,0,0,.23.44,1.89,1.89,0,0,0,.62.29c.25.08.61.17,1.06.28a5.78,5.78,0,0,1,1.31.47,2.08,2.08,0,0,1,.77.64A1.4,1.4,0,0,1,191.18,485.37Z"/><path class="cls-2" d="M192.94,479.8a.88.88,0,0,1-.61-.22.74.74,0,0,1-.26-.62.8.8,0,0,1,.26-.61.89.89,0,0,1,.61-.24.94.94,0,0,1,.6.22.77.77,0,0,1,.26.63.79.79,0,0,1-.26.62A.86.86,0,0,1,192.94,479.8Zm.86,1.79v5a1.15,1.15,0,0,1-.25.79.79.79,0,0,1-.63.26.76.76,0,0,1-.61-.27,1.14,1.14,0,0,1-.24-.78v-4.94a1.09,1.09,0,0,1,.24-.77.75.75,0,0,1,.61-.26.79.79,0,0,1,.63.26A1,1,0,0,1,193.8,481.59Z"/><path class="cls-2" d="M201.37,481.87v5a5,5,0,0,1-.19,1.49,2.26,2.26,0,0,1-.59,1,2.46,2.46,0,0,1-1.05.6,5.87,5.87,0,0,1-1.64.2,4.91,4.91,0,0,1-1.59-.25,2.68,2.68,0,0,1-1.08-.65,1.13,1.13,0,0,1-.38-.81.7.7,0,0,1,.21-.52.77.77,0,0,1,.52-.2.88.88,0,0,1,.67.34c.09.11.18.23.28.34a1.55,1.55,0,0,0,.33.3,1.62,1.62,0,0,0,.44.19,3.23,3.23,0,0,0,.58.06,2.41,2.41,0,0,0,1-.19,1.09,1.09,0,0,0,.52-.52,2,2,0,0,0,.17-.72c0-.26,0-.67,0-1.23a2.85,2.85,0,0,1-.92.85,2.55,2.55,0,0,1-1.24.29A2.6,2.6,0,0,1,196,487a2.89,2.89,0,0,1-1-1.24,4.58,4.58,0,0,1-.34-1.84,4.44,4.44,0,0,1,.21-1.41,2.92,2.92,0,0,1,.6-1.05,2.5,2.5,0,0,1,.91-.65,3,3,0,0,1,2.4.06,3.15,3.15,0,0,1,1,.89v-.24a1,1,0,0,1,.22-.7.75.75,0,0,1,.57-.24.68.68,0,0,1,.66.32A2.13,2.13,0,0,1,201.37,481.87Zm-5,2.19a2.38,2.38,0,0,0,.46,1.59,1.49,1.49,0,0,0,1.19.54,1.61,1.61,0,0,0,.81-.23,1.71,1.71,0,0,0,.62-.7,2.42,2.42,0,0,0,.24-1.13,2.58,2.58,0,0,0-.46-1.64,1.5,1.5,0,0,0-1.23-.59,1.43,1.43,0,0,0-1.18.56A2.52,2.52,0,0,0,196.36,484.06Z"/><path class="cls-2" d="M204.11,481.56v.21a3.13,3.13,0,0,1,1-.88,2.63,2.63,0,0,1,1.24-.28,2.49,2.49,0,0,1,1.23.3,1.81,1.81,0,0,1,.8.84,2,2,0,0,1,.22.68,6.25,6.25,0,0,1,.05.94v3.21a1.2,1.2,0,0,1-.23.79.79.79,0,0,1-.62.26.8.8,0,0,1-.63-.27,1.14,1.14,0,0,1-.24-.78V483.7a2.81,2.81,0,0,0-.24-1.3.94.94,0,0,0-.94-.46,1.41,1.41,0,0,0-.84.28,1.55,1.55,0,0,0-.56.76,5.06,5.06,0,0,0-.13,1.44v2.16a1.13,1.13,0,0,1-.24.79.87.87,0,0,1-1.25,0,1.14,1.14,0,0,1-.24-.78v-5a1.06,1.06,0,0,1,.22-.74.75.75,0,0,1,.59-.24.72.72,0,0,1,.41.11.75.75,0,0,1,.29.32A1.05,1.05,0,0,1,204.11,481.56Z"/><path class="cls-2" d="M214.63,484.55h-3.38a2.15,2.15,0,0,0,.24,1,1.56,1.56,0,0,0,.61.68,1.63,1.63,0,0,0,.84.23,2.47,2.47,0,0,0,.57-.07,2,2,0,0,0,.5-.23l.44-.33.53-.49a.57.57,0,0,1,.38-.11.63.63,0,0,1,.43.15.5.5,0,0,1,.16.41,1.17,1.17,0,0,1-.18.55,2.56,2.56,0,0,1-.56.6,2.89,2.89,0,0,1-.93.47,3.89,3.89,0,0,1-1.29.19,3.43,3.43,0,0,1-2.59-.95,3.55,3.55,0,0,1-.92-2.57,4.31,4.31,0,0,1,.23-1.42,3.18,3.18,0,0,1,.66-1.13,2.93,2.93,0,0,1,1.08-.72,4,4,0,0,1,1.42-.24,3.38,3.38,0,0,1,1.73.42,2.83,2.83,0,0,1,1.09,1.11,2.9,2.9,0,0,1,.36,1.38c0,.43-.12.71-.37.84A2.3,2.3,0,0,1,214.63,484.55Zm-3.38-1h3.13a2,2,0,0,0-.48-1.32,1.53,1.53,0,0,0-2.15,0A2.22,2.22,0,0,0,211.25,483.56Z"/><path class="cls-2" d="M221.67,486.65v-.17a4.4,4.4,0,0,1-.68.64,2.36,2.36,0,0,1-.74.38,2.63,2.63,0,0,1-.86.13,2.46,2.46,0,0,1-1.15-.26,2.63,2.63,0,0,1-.92-.75,3.41,3.41,0,0,1-.58-1.14,4.71,4.71,0,0,1-.2-1.43,3.68,3.68,0,0,1,.79-2.52,2.61,2.61,0,0,1,2.08-.91,2.8,2.8,0,0,1,1.26.26,3.37,3.37,0,0,1,1,.79v-2.56a1.29,1.29,0,0,1,.21-.8.75.75,0,0,1,.61-.27.73.73,0,0,1,.6.25,1.13,1.13,0,0,1,.22.74v7.62a1.07,1.07,0,0,1-.23.74.78.78,0,0,1-.59.24.76.76,0,0,1-.59-.25A1.08,1.08,0,0,1,221.67,486.65Zm-3.4-2.54a3,3,0,0,0,.22,1.19,1.76,1.76,0,0,0,.6.75,1.45,1.45,0,0,0,.83.25,1.52,1.52,0,0,0,.83-.24,1.64,1.64,0,0,0,.6-.73,3.27,3.27,0,0,0,0-2.41,1.79,1.79,0,0,0-.61-.76,1.46,1.46,0,0,0-.83-.26,1.41,1.41,0,0,0-.85.27,1.71,1.71,0,0,0-.58.77A3.05,3.05,0,0,0,218.27,484.11Z"/><path class="cls-2" d="M228.74,479v2.64a3.85,3.85,0,0,1,1-.78,2.63,2.63,0,0,1,1.25-.27,2.77,2.77,0,0,1,1.51.41,2.73,2.73,0,0,1,1,1.18,4.35,4.35,0,0,1,.36,1.84,5,5,0,0,1-.2,1.44,3.6,3.6,0,0,1-.58,1.14,2.62,2.62,0,0,1-2.12,1,3.08,3.08,0,0,1-.75-.09,2.14,2.14,0,0,1-.59-.25,2.53,2.53,0,0,1-.43-.32c-.11-.11-.26-.27-.45-.49v.17a1,1,0,0,1-.24.73.75.75,0,0,1-.59.25.74.74,0,0,1-.59-.25,1,1,0,0,1-.22-.73V479.1a1.26,1.26,0,0,1,.21-.79.73.73,0,0,1,.6-.27.75.75,0,0,1,.61.25A1.16,1.16,0,0,1,228.74,479Zm.08,5.13a2.37,2.37,0,0,0,.47,1.58,1.55,1.55,0,0,0,1.24.56,1.41,1.41,0,0,0,1.12-.57,2.5,2.5,0,0,0,.47-1.62,3.21,3.21,0,0,0-.19-1.18,1.78,1.78,0,0,0-.56-.76,1.36,1.36,0,0,0-.84-.27,1.48,1.48,0,0,0-.88.27,1.8,1.8,0,0,0-.61.78A3,3,0,0,0,228.82,484.16Z"/><path class="cls-2" d="M236.1,487.85l.16-.39-2.13-5.35a2.06,2.06,0,0,1-.2-.67.73.73,0,0,1,.12-.41.84.84,0,0,1,.31-.31.87.87,0,0,1,.41-.11.72.72,0,0,1,.57.23,2.22,2.22,0,0,1,.33.69l1.47,4.25,1.38-4a6.41,6.41,0,0,1,.3-.75,1,1,0,0,1,.28-.37.82.82,0,0,1,.42-.09.75.75,0,0,1,.38.1.83.83,0,0,1,.28.28.86.86,0,0,1,.1.38l-.09.34a3.88,3.88,0,0,1-.14.45l-2.25,5.9a6.43,6.43,0,0,1-.57,1.22,1.86,1.86,0,0,1-.74.68,2.68,2.68,0,0,1-1.24.24,2.94,2.94,0,0,1-1.13-.17.67.67,0,0,1-.2-1.06.82.82,0,0,1,.53-.16.8.8,0,0,1,.27,0,1.11,1.11,0,0,0,.29,0,1,1,0,0,0,.47-.09.81.81,0,0,0,.3-.31A4.68,4.68,0,0,0,236.1,487.85Z"/><path class="cls-2" d="M261.13,480.76h.41v-.52a3.27,3.27,0,0,1,.21-1.29,1.3,1.3,0,0,1,.7-.7,3.42,3.42,0,0,1,1.34-.22c1,0,1.51.25,1.51.75a.63.63,0,0,1-.15.41.52.52,0,0,1-.38.17l-.35,0a2.25,2.25,0,0,0-.41,0,.61.61,0,0,0-.61.28,2,2,0,0,0-.13.79v.41h.42c.67,0,1,.2,1,.59s-.08.46-.26.54a1.81,1.81,0,0,1-.73.11h-.42v4.58a1.14,1.14,0,0,1-.24.78.8.8,0,0,1-.63.27.78.78,0,0,1-.61-.27,1.09,1.09,0,0,1-.25-.78V482h-.47a.89.89,0,0,1-.6-.17.55.55,0,0,1-.21-.45c0-.42.29-.62.87-.62"/><path class="cls-2" d="M266.79,485.14v1.44a1.13,1.13,0,0,1-.25.79.79.79,0,0,1-.62.26.77.77,0,0,1-.62-.26,1.15,1.15,0,0,1-.24-.79v-4.81q0-1.17.84-1.17a.69.69,0,0,1,.62.28,1.44,1.44,0,0,1,.21.8,3.27,3.27,0,0,1,.63-.8,1.31,1.31,0,0,1,.88-.28,2.12,2.12,0,0,1,1.05.28.8.8,0,0,1,.52.72.69.69,0,0,1-.22.52.67.67,0,0,1-.47.21,2,2,0,0,1-.46-.12,2.14,2.14,0,0,0-.64-.12.94.94,0,0,0-.62.2,1.26,1.26,0,0,0-.38.59,4,4,0,0,0-.18.94c0,.36,0,.8,0,1.32"/><path class="cls-2" d="M274.74,484.54h-3.39a2.41,2.41,0,0,0,.24,1,1.64,1.64,0,0,0,.62.68,1.6,1.6,0,0,0,.84.23,2,2,0,0,0,.57-.08,1.64,1.64,0,0,0,.49-.22,4.07,4.07,0,0,0,.45-.34c.13-.11.31-.27.52-.48a.61.61,0,0,1,.38-.11.65.65,0,0,1,.44.15.5.5,0,0,1,.16.41,1.11,1.11,0,0,1-.18.54,2.41,2.41,0,0,1-.56.61,3.12,3.12,0,0,1-.93.47,3.89,3.89,0,0,1-1.29.19,3.46,3.46,0,0,1-2.59-.94,3.59,3.59,0,0,1-.92-2.58,4.17,4.17,0,0,1,.23-1.43,3.14,3.14,0,0,1,.66-1.12,2.93,2.93,0,0,1,1.08-.72,3.74,3.74,0,0,1,1.42-.25,3.29,3.29,0,0,1,1.73.43,2.77,2.77,0,0,1,1.09,1.11,2.9,2.9,0,0,1,.36,1.38.87.87,0,0,1-.37.84,2.32,2.32,0,0,1-1.05.19m-3.39-1h3.14a2.1,2.1,0,0,0-.48-1.32,1.41,1.41,0,0,0-1.09-.44,1.36,1.36,0,0,0-1.06.44,2.22,2.22,0,0,0-.51,1.32"/><path class="cls-2" d="M281.92,484.54h-3.38a2.41,2.41,0,0,0,.24,1,1.62,1.62,0,0,0,.61.68,1.67,1.67,0,0,0,.85.23,1.89,1.89,0,0,0,.56-.08,1.59,1.59,0,0,0,.5-.22,4.07,4.07,0,0,0,.45-.34c.13-.11.31-.27.52-.48a.7.7,0,0,1,.81,0,.5.5,0,0,1,.16.41,1,1,0,0,1-.18.54,2.19,2.19,0,0,1-.55.61,3.12,3.12,0,0,1-.93.47,3.93,3.93,0,0,1-1.29.19,3.46,3.46,0,0,1-2.59-.94,3.55,3.55,0,0,1-.93-2.58,4.42,4.42,0,0,1,.23-1.43,3.31,3.31,0,0,1,.67-1.12,3,3,0,0,1,1.07-.72,3.82,3.82,0,0,1,1.42-.25,3.39,3.39,0,0,1,1.75.43,2.81,2.81,0,0,1,1.08,1.11,2.9,2.9,0,0,1,.36,1.38.86.86,0,0,1-.38.84,2.29,2.29,0,0,1-1.05.19m-3.38-1h3.14a2.16,2.16,0,0,0-.48-1.32,1.41,1.41,0,0,0-1.09-.44,1.4,1.4,0,0,0-1.07.44,2.28,2.28,0,0,0-.5,1.32"/><path class="cls-2" d="M285.71,481.58v.2a3.29,3.29,0,0,1,1-.88,2.39,2.39,0,0,1,1.18-.28,2.7,2.7,0,0,1,1.47.41,2.83,2.83,0,0,1,1.06,1.2,4.21,4.21,0,0,1,.39,1.88,4.52,4.52,0,0,1-.22,1.46,3.26,3.26,0,0,1-.62,1.12,2.72,2.72,0,0,1-.92.7,2.87,2.87,0,0,1-1.16.24,2.37,2.37,0,0,1-1.24-.3,3.48,3.48,0,0,1-1-.87v2.6c0,.76-.28,1.14-.83,1.14a.68.68,0,0,1-.65-.29,2,2,0,0,1-.15-.87v-7.46a1.08,1.08,0,0,1,.21-.73.75.75,0,0,1,.59-.25.81.81,0,0,1,.6.25,1.06,1.06,0,0,1,.23.73m3.39,2.51a3,3,0,0,0-.21-1.18,1.65,1.65,0,0,0-.58-.75,1.4,1.4,0,0,0-.82-.26,1.56,1.56,0,0,0-1.21.56,2.51,2.51,0,0,0-.49,1.66,2.37,2.37,0,0,0,.49,1.6,1.52,1.52,0,0,0,1.21.58,1.45,1.45,0,0,0,.8-.25,1.74,1.74,0,0,0,.59-.75,3.15,3.15,0,0,0,.22-1.21"/><path class="cls-2" d="M292.57,479.8a.93.93,0,0,1-.61-.22.8.8,0,0,1-.26-.63.77.77,0,0,1,.27-.6.85.85,0,0,1,.6-.24.91.91,0,0,1,.6.21.91.91,0,0,1,0,1.26.93.93,0,0,1-.61.22m.86,1.78v5a1.1,1.1,0,0,1-.25.79.86.86,0,0,1-1.24,0,1.14,1.14,0,0,1-.24-.78v-4.95a1.07,1.07,0,0,1,.24-.76.78.78,0,0,1,.62-.27.8.8,0,0,1,.62.27,1,1,0,0,1,.25.71"/><path class="cls-2" d="M299,486.84l-1.52-2.51-.94.89v1.38a1.06,1.06,0,0,1-.26.76.82.82,0,0,1-.61.27.76.76,0,0,1-.62-.26,1.2,1.2,0,0,1-.23-.79v-7.37a1.49,1.49,0,0,1,.22-.88.74.74,0,0,1,.63-.3.82.82,0,0,1,.64.28,1.23,1.23,0,0,1,.23.8v4.19l1.94-2a5.27,5.27,0,0,1,.56-.52.74.74,0,0,1,.46-.14.76.76,0,0,1,.54.21.7.7,0,0,1,.21.52c0,.25-.23.59-.7,1l-.92.84L300.4,486c.13.21.23.36.29.47a.71.71,0,0,1,.08.31.92.92,0,0,1-.22.65.81.81,0,0,1-.59.23.62.62,0,0,1-.49-.17,3.82,3.82,0,0,1-.47-.62"/><path class="cls-2" d="M302.76,487.63a1,1,0,0,1-.68-.25,1,1,0,0,1,.66-1.65.94.94,0,0,1,.68.27,1,1,0,0,1,0,1.38,1,1,0,0,1-.66.25"/><path class="cls-2" d="M311.35,485.49a1.44,1.44,0,0,1-.19.69,2.23,2.23,0,0,1-.59.7,3.05,3.05,0,0,1-1,.54,4.35,4.35,0,0,1-1.35.2,3.31,3.31,0,0,1-2.5-.93,3.46,3.46,0,0,1-.9-2.51,4.19,4.19,0,0,1,.41-1.88,3,3,0,0,1,1.19-1.26,3.66,3.66,0,0,1,1.86-.45,3.79,3.79,0,0,1,1.24.2,3.56,3.56,0,0,1,1,.5,2.61,2.61,0,0,1,.59.67,1.25,1.25,0,0,1,.2.65.71.71,0,0,1-.22.53.83.83,0,0,1-.56.21.52.52,0,0,1-.36-.11,1.3,1.3,0,0,1-.32-.36,2.47,2.47,0,0,0-.67-.72,1.49,1.49,0,0,0-.87-.24,1.51,1.51,0,0,0-1.24.6,2.62,2.62,0,0,0-.47,1.64,3.14,3.14,0,0,0,.12.89,2,2,0,0,0,.35.7,1.65,1.65,0,0,0,.55.44,1.71,1.71,0,0,0,.71.15,1.58,1.58,0,0,0,.89-.24,2.19,2.19,0,0,0,.66-.74,1.89,1.89,0,0,1,.34-.45.68.68,0,0,1,1,.07.76.76,0,0,1,.21.51"/><path class="cls-2" d="M318.81,484.12a4.42,4.42,0,0,1-.23,1.43,3.33,3.33,0,0,1-.7,1.11,3,3,0,0,1-1.09.72,3.83,3.83,0,0,1-1.43.25,3.73,3.73,0,0,1-1.41-.25,3.1,3.1,0,0,1-1.08-.72,3.34,3.34,0,0,1-.71-1.12,4.27,4.27,0,0,1-.23-1.42,4.18,4.18,0,0,1,.24-1.44,3.06,3.06,0,0,1,1.78-1.83,4,4,0,0,1,1.41-.25,3.83,3.83,0,0,1,1.43.26,3.14,3.14,0,0,1,1.09.72,3,3,0,0,1,.7,1.11,4.38,4.38,0,0,1,.23,1.43m-1.73,0a2.63,2.63,0,0,0-.47-1.65,1.61,1.61,0,0,0-2.14-.32,1.55,1.55,0,0,0-.59.77,3.13,3.13,0,0,0-.22,1.2,3.07,3.07,0,0,0,.21,1.18,1.76,1.76,0,0,0,.59.78,1.54,1.54,0,0,0,.9.27,1.49,1.49,0,0,0,1.25-.6,2.57,2.57,0,0,0,.47-1.63"/><path class="cls-2" d="M325.41,484.25v2.29a1.15,1.15,0,0,1-.25.82.85.85,0,0,1-.65.27.82.82,0,0,1-.64-.27,1.2,1.2,0,0,1-.24-.82v-2.75a8.82,8.82,0,0,0-.05-1,1.09,1.09,0,0,0-.24-.58.76.76,0,0,0-.62-.24,1.1,1.1,0,0,0-1.12.59,4.22,4.22,0,0,0-.27,1.67v2.33a1.23,1.23,0,0,1-.24.82.89.89,0,0,1-1.28,0,1.19,1.19,0,0,1-.26-.82V481.6a1.07,1.07,0,0,1,.23-.74.76.76,0,0,1,.59-.26.86.86,0,0,1,.6.24.93.93,0,0,1,.23.66v.16a3,3,0,0,1,1-.79,2.58,2.58,0,0,1,1.15-.25,2.17,2.17,0,0,1,1.11.26,2,2,0,0,1,.78.78,3.12,3.12,0,0,1,.94-.79,2.37,2.37,0,0,1,1.1-.25,2.49,2.49,0,0,1,1.23.28,1.76,1.76,0,0,1,.76.79,3.68,3.68,0,0,1,.22,1.48v3.37a1.2,1.2,0,0,1-.24.82.87.87,0,0,1-.66.27.84.84,0,0,1-.64-.27,1.18,1.18,0,0,1-.25-.82v-2.9a5.33,5.33,0,0,0-.05-.89,1,1,0,0,0-.25-.57.83.83,0,0,0-.64-.23,1.11,1.11,0,0,0-.64.21,1.35,1.35,0,0,0-.49.54,4.57,4.57,0,0,0-.18,1.55"/><path class="cls-2" d="M245,483.7h0Z"/><path class="cls-2" d="M245.05,484.25h0a3.69,3.69,0,0,1-.08-.46A3.69,3.69,0,0,0,245.05,484.25Z"/><path class="cls-2" d="M245.62,485.86v0Z"/><path class="cls-2" d="M245.56,485.75l0-.09Z"/><path class="cls-2" d="M245.21,484.87a4.73,4.73,0,0,0,.3.77,5.57,5.57,0,0,1-.3-.77Z"/><path class="cls-2" d="M251.65,477.08a5.65,5.65,0,0,1,.86.07l.08-.5a5.36,5.36,0,0,0-1.81-.16l-.08-.28a.71.71,0,1,0-.29,0l.09.31a7.12,7.12,0,0,0-2,.58l.16.47a8,8,0,0,1,1.75-.41A10.07,10.07,0,0,1,251.65,477.08Z"/><path class="cls-2" d="M245.6,479.65h0a.86.86,0,0,1,.07-.1l-.2-.15-.33-.24a4.87,4.87,0,0,0-.93,1.37l-.06-.08a.66.66,0,0,0-.51-.2h0a.38.38,0,0,1-.28-.1.42.42,0,0,0,.09-.27.45.45,0,1,0-.89,0,.44.44,0,0,0,.45.44h.11a.67.67,0,0,0,.54.22.38.38,0,0,1,.29.11.44.44,0,0,1,.1.28h0a4.94,4.94,0,0,0-.21,1.79l.71,0a4.82,4.82,0,0,1,.25-1.48A7.62,7.62,0,0,1,245.6,479.65Z"/><path class="cls-2" d="M257.78,477.67a.45.45,0,0,0-.45.44.36.36,0,0,0,0,.11.72.72,0,0,0-.23.54.36.36,0,0,1-.1.3.52.52,0,0,1-.2.09,5.12,5.12,0,0,0-1.17-1.18l-.5.54a8.18,8.18,0,0,1,1.15,1.32,10,10,0,0,1,.76,1.35l.68-.33a10.18,10.18,0,0,0-.75-1.46.56.56,0,0,0,.22-.13.65.65,0,0,0,.2-.5.43.43,0,0,1,.09-.3.48.48,0,0,0,.28.1.45.45,0,1,0,0-.89Z"/><path class="cls-2" d="M256,483.8a15.32,15.32,0,0,1-4.52,1.35,16.8,16.8,0,0,1-2.29.15,19,19,0,0,1-2.37-.15,16,16,0,0,1-1.62-.28,5.57,5.57,0,0,0,.3.77v0l0,.09.05.09v0a4.75,4.75,0,0,0,.72,1,3.77,3.77,0,0,0,1.94,1.22h0a7.37,7.37,0,0,0,2.2.29,9.55,9.55,0,0,0,3.78-.78,6.18,6.18,0,0,0,2.17-1.78,5,5,0,0,0,.7-1.53,4.27,4.27,0,0,0,.1-1.22A10.36,10.36,0,0,1,256,483.8Z"/><path class="cls-2" d="M245.91,479.87a6.56,6.56,0,0,0-.76,1.51,5.6,5.6,0,0,0-.23,1.63h0a5,5,0,0,0,0,.67h0s0,.06,0,.09a3.69,3.69,0,0,0,.08.46,17.87,17.87,0,0,0,6.36.34,14.42,14.42,0,0,0,4.33-1.29,10.27,10.27,0,0,0,1.42-.82,9.33,9.33,0,0,0-1.17-2.43,5.45,5.45,0,0,0-3.51-2.52,4.43,4.43,0,0,0-.83-.07,11.53,11.53,0,0,0-1.16.07,7.53,7.53,0,0,0-1.69.4,6.51,6.51,0,0,0-2.35,1.36l0,0A3.85,3.85,0,0,0,245.91,479.87Zm8.17-.44a1.16,1.16,0,1,1-1.16,1.16A1.17,1.17,0,0,1,254.08,479.43Zm-5.49-.05a1.88,1.88,0,1,1-1.88,1.88A1.88,1.88,0,0,1,248.59,479.38Z"/></g></g></svg>